<svg width="44" height="44" viewBox="0 0 44 44" fill="none" xmlns="http://www.w3.org/2000/svg">
<path opacity="0.996" d="M43.9999 21.9336C44.0175 27.768 41.7168 33.3705 37.6039 37.5087C33.4909 41.6469 27.9026 43.9818 22.0682 43.9999C16.2337 44.018 10.6311 41.7177 6.49254 37.6051C2.35403 33.4925 0.0186486 27.9043 0.00011121 22.0699C-0.018427 16.2355 2.28139 10.6326 6.39369 6.49376C10.506 2.35492 16.094 0.0191086 21.9284 0.000116715C27.7628 -0.0188748 33.3659 2.28051 37.505 6.39249C41.6442 10.5045 43.9804 16.0922 43.9999 21.9267" fill="white"/>
<path fill-rule="evenodd" clip-rule="evenodd" d="M36.6419 22.0886C36.6419 14.0028 30.0859 7.44678 22 7.44678C13.9142 7.44678 7.35815 14.0028 7.35815 22.0886C7.35815 29.3962 12.7117 35.4538 19.7124 36.5535V26.3221H15.9938V22.0886H19.7124V18.8621C19.7124 15.1928 21.8991 13.1647 25.243 13.1647C26.8449 13.1647 28.521 13.4508 28.521 13.4508V17.0543H26.674C24.8559 17.0543 24.2876 18.1826 24.2876 19.3418V22.0885H28.348L27.6993 26.3219H24.2875V36.5534C31.2882 35.4558 36.6418 29.3981 36.6418 22.0885L36.6419 22.0886Z" fill="#6E6E6E"/>
</svg>
