<svg width="44" height="44" viewBox="0 0 44 44" fill="none" xmlns="http://www.w3.org/2000/svg">
<path opacity="0.996" d="M43.9999 21.9336C44.0175 27.768 41.7168 33.3705 37.6039 37.5087C33.4909 41.6469 27.9026 43.9818 22.0682 43.9999C16.2337 44.018 10.6311 41.7177 6.49254 37.6051C2.35403 33.4925 0.0186486 27.9043 0.00011121 22.0699C-0.018427 16.2355 2.2814 10.6326 6.3937 6.49376C10.506 2.35492 16.094 0.0191104 21.9284 0.000116708C27.7628 -0.0188742 33.3659 2.28051 37.505 6.39249C41.6442 10.5045 43.9804 16.0922 43.9999 21.9267" fill="white"/>
<path d="M22.0001 11.2256C19.073 11.2256 18.7075 11.2389 17.5582 11.2901C16.4107 11.344 15.6296 11.5246 14.9427 11.7912C14.2343 12.066 13.6327 12.4349 13.0338 13.0338C12.4349 13.6327 12.065 14.2334 11.7911 14.9427C11.5244 15.6296 11.343 16.4108 11.2901 17.5583C11.2362 18.7076 11.2254 19.073 11.2254 22.0001C11.2254 24.9272 11.2389 25.2927 11.2901 26.442C11.344 27.5886 11.5244 28.3707 11.7911 29.0575C12.0658 29.7651 12.4349 30.3675 13.0338 30.9664C13.6327 31.5644 14.2334 31.9353 14.9427 32.2091C15.6305 32.4748 16.4116 32.6572 17.5582 32.7101C18.7075 32.7641 19.073 32.7747 22.0001 32.7747C24.9272 32.7747 25.2926 32.7614 26.4419 32.7101C27.5885 32.6562 28.3706 32.475 29.0575 32.2091C29.765 31.9342 30.3675 31.5644 30.9664 30.9664C31.5644 30.3675 31.9352 29.7678 32.2091 29.0575C32.4748 28.3707 32.6571 27.5886 32.7101 26.442C32.764 25.2927 32.7747 24.9272 32.7747 22.0001C32.7747 19.073 32.7614 18.7076 32.7101 17.5583C32.6562 16.4117 32.4749 15.6287 32.2091 14.9427C31.9342 14.2343 31.5644 13.6327 30.9664 13.0338C30.3675 12.4349 29.7677 12.065 29.0575 11.7912C28.3706 11.5244 27.5885 11.3431 26.4419 11.2901C25.2926 11.2362 24.9272 11.2256 22.0001 11.2256ZM22.0001 13.165C24.8761 13.165 25.219 13.1783 26.3549 13.2289C27.4054 13.278 27.9755 13.4526 28.3544 13.6015C28.8591 13.7964 29.2164 14.0298 29.5953 14.406C29.9716 14.7831 30.205 15.1414 30.3998 15.646C30.547 16.0249 30.7229 16.5951 30.7707 17.6456C30.8219 18.7823 30.8337 19.1235 30.8337 22.0004C30.8337 24.8772 30.8204 25.2193 30.7671 26.3551C30.7126 27.4056 30.5374 27.9758 30.3891 28.3547C30.1878 28.8593 29.959 29.2167 29.5819 29.5956C29.2057 29.9718 28.8421 30.2052 28.3428 30.4001C27.9657 30.5473 27.3866 30.7232 26.3361 30.7709C25.1922 30.8222 24.8555 30.8337 21.9732 30.8337C19.0901 30.8337 18.7534 30.8204 17.6104 30.7672C16.5589 30.7126 15.9798 30.5374 15.6027 30.3892C15.0918 30.1878 14.7407 29.9591 14.3645 29.582C13.9865 29.2057 13.745 28.8421 13.5564 28.3429C13.4082 27.9657 13.2341 27.3866 13.1793 26.3361C13.1389 25.2048 13.1245 24.8554 13.1245 21.9867C13.1245 19.117 13.1389 18.7669 13.1793 17.6221C13.2341 16.5716 13.4083 15.9933 13.5564 15.6162C13.7449 15.1044 13.9865 14.7542 14.3645 14.3762C14.7407 14 15.0918 13.7576 15.6027 13.5699C15.9798 13.421 16.5464 13.2458 17.5969 13.1919C18.7417 13.1517 19.0784 13.138 21.9597 13.138L22.0001 13.165ZM22.0001 16.4675C18.9428 16.4675 16.4673 18.9457 16.4673 22.0003C16.4673 25.0576 18.9455 27.533 22.0001 27.533C25.0574 27.533 27.5329 25.0549 27.5329 22.0003C27.5329 18.9429 25.0547 16.4675 22.0001 16.4675ZM22.0001 25.5918C20.0158 25.5918 18.4085 23.9846 18.4085 22.0003C18.4085 20.0159 20.0158 18.4087 22.0001 18.4087C23.9845 18.4087 25.5916 20.0159 25.5916 22.0003C25.5916 23.9846 23.9845 25.5918 22.0001 25.5918ZM29.0449 16.2493C29.0449 16.9631 28.4649 17.5422 27.752 17.5422C27.0381 17.5422 26.459 16.9622 26.459 16.2493C26.459 15.5363 27.039 14.9572 27.752 14.9572C28.464 14.9563 29.0449 15.5363 29.0449 16.2493Z" fill="#6E6E6E"/>
</svg>
