<svg width="44" height="44" viewBox="0 0 44 44" fill="none" xmlns="http://www.w3.org/2000/svg">
<path opacity="0.996" d="M43.9999 21.9336C44.0175 27.768 41.7168 33.3705 37.6039 37.5087C33.4909 41.6469 27.9026 43.9818 22.0682 43.9999C16.2337 44.018 10.6311 41.7177 6.49256 37.6051C2.35405 33.4925 0.0186486 27.9043 0.00011121 22.0699C-0.018427 16.2355 2.2814 10.6326 6.3937 6.49378C10.506 2.35494 16.094 0.0191098 21.9284 0.000116707C27.7628 -0.0188742 33.3659 2.28053 37.505 6.3925C41.6442 10.5045 43.9804 16.0922 43.9999 21.9267" fill="white"/>
<path d="M34.4125 33.2345C33.3222 33.0754 32.5909 32.3062 32.5782 31.3047L32.5716 30.8398L33.3481 30.8199C33.825 30.8066 34.1601 30.8287 34.2167 30.876C34.2676 30.9182 34.3294 31.0627 34.3549 31.1973C34.4561 31.7368 35.1488 31.9289 35.4977 31.5142C35.8578 31.0863 35.7017 30.8243 34.8604 30.4442C33.7309 29.9339 33.4691 29.7897 33.2028 29.5313C32.781 29.122 32.6456 28.789 32.6443 28.158C32.6432 27.6954 32.6723 27.5687 32.8562 27.2369C33.544 25.9949 35.57 25.6545 36.7046 26.5903C37.0523 26.8771 37.3395 27.4421 37.3531 27.8662L37.3642 28.1938L36.5228 28.2137L35.6816 28.2336L35.606 28.0347C35.4765 27.6942 35.3291 27.5852 34.998 27.5852C34.7531 27.5852 34.663 27.6226 34.5442 27.7737C34.2269 28.177 34.3723 28.3347 35.6197 28.9403C37.1133 29.6655 37.4339 30.0453 37.4342 31.09C37.4343 31.5725 37.4004 31.7717 37.2702 32.0555C36.9631 32.725 36.4357 33.097 35.6019 33.2323C35.0973 33.3141 34.961 33.3145 34.4122 33.2344L34.4125 33.2345ZM18.7652 33.075C18.7475 33.0259 18.7393 31.4568 18.7497 29.5882L18.7674 26.1908H19.6257H20.484L20.5198 28.8729L20.5556 31.5551L21.557 31.5909L22.5583 31.6267L22.5782 32.2955C22.5914 32.7271 22.5693 32.9998 22.5156 33.0644C22.4003 33.2034 18.8166 33.2133 18.7636 33.0754L18.7652 33.075ZM22.9141 33.0761C22.8964 33.0264 22.8878 31.4566 22.8986 29.5881L22.9163 26.1907H24.8474H26.7786L26.7985 26.9576L26.8184 27.7246L25.761 27.7445L24.7036 27.7644V28.2651V28.7657L25.705 28.8015L26.7063 28.8373L26.7262 29.6042L26.7461 30.3711L25.7245 30.391L24.7028 30.4109V30.9831V31.5553L25.7602 31.5752L26.8176 31.5951L26.7977 32.362L26.7778 33.129L24.8627 33.1467C23.3694 33.1621 22.94 33.1459 22.9129 33.0751L22.9141 33.0761ZM27.1866 33.0781C27.1223 33.0138 27.1006 32.155 27.1006 29.6537C27.1006 26.7751 27.1161 26.3029 27.2078 26.2262C27.361 26.0991 30.2884 26.1721 30.7841 26.3153C31.4806 26.5164 31.8659 26.8255 32.189 27.4422C32.3367 27.7236 32.3576 27.8629 32.3576 28.5508C32.3576 29.4985 32.2589 29.7352 31.6289 30.2967C31.2865 30.6019 31.2294 30.685 31.2919 30.7876C31.7679 31.5689 32.5373 33.0333 32.5019 33.0905C32.4752 33.1338 32.1252 33.1641 31.6493 33.1641C30.9695 33.1641 30.8249 33.1442 30.7334 33.0391C30.6735 32.9703 30.295 32.3024 29.892 31.5549C29.489 30.8075 29.1145 30.1488 29.0597 30.0912C28.9747 30.0017 28.9603 30.1955 28.9603 31.437C28.9603 32.3001 28.9302 32.9436 28.8863 33.0259C28.8202 33.1496 28.7303 33.1642 28.0423 33.1642C27.5388 33.1642 27.2426 33.1346 27.1865 33.0782L27.1866 33.0781ZM30.0411 29.6878C30.1438 29.6679 30.3208 29.5552 30.4344 29.4365C30.6181 29.2447 30.6413 29.1701 30.6413 28.7652C30.6413 28.36 30.6185 28.2858 30.4338 28.0932C30.2058 27.8551 29.6763 27.6974 29.2465 27.7394L28.9962 27.7639L28.9763 28.7904L28.9564 29.8169L29.4055 29.77C29.6524 29.7444 29.9385 29.7073 30.0411 29.6878H30.0411ZM6.08894 25.5133C5.25537 25.3836 4.54669 24.8398 4.32489 24.1598C4.20291 23.7858 4.16071 23.293 4.23982 23.1651C4.31319 23.0462 5.79657 23.0462 5.91526 23.1649C5.96255 23.2122 6.0012 23.3222 6.0012 23.4097C6.0012 23.4973 6.08452 23.6678 6.18639 23.7888C6.53507 24.2032 7.19065 24.0396 7.32317 23.5051C7.39985 23.1957 7.15145 22.9852 6.23491 22.5831C5.772 22.38 5.24243 22.1039 5.05807 21.9695C4.39038 21.483 4.1395 20.6826 4.38737 19.8299C4.81006 18.3759 7.05954 17.828 8.36406 18.8611C8.6989 19.1264 9.00663 19.727 9.02645 20.1541L9.04193 20.4685L8.1988 20.4884L7.35571 20.5083L7.25516 20.2678C7.11373 19.9292 6.98696 19.8479 6.64034 19.8735C6.26762 19.9011 6.02696 20.1652 6.10209 20.4645C6.14142 20.6214 6.31887 20.7356 7.18229 21.1595C8.36591 21.7406 8.70406 21.9989 8.96397 22.5205C9.34786 23.2908 9.07004 24.5378 8.40074 25.0483C7.87382 25.4502 6.91983 25.6419 6.08988 25.5128L6.08894 25.5133ZM12.2068 25.5089C10.9539 25.2979 10.003 24.5857 9.45606 23.4485C8.69369 21.8634 9.27265 19.8478 10.7656 18.8881C11.3775 18.4948 11.9413 18.3399 12.7602 18.3399C13.8897 18.3399 14.6838 18.6717 15.4206 19.4516C15.9981 20.0628 16.432 20.9496 16.2196 21.0842C16.1657 21.1182 15.7734 21.1467 15.3475 21.1472C14.5998 21.1483 14.5679 21.1405 14.4177 20.9616C13.6726 20.0675 13.4555 19.9359 12.7244 19.9345C11.6807 19.9326 10.9371 20.7647 10.9371 21.9349C10.9371 23.1082 11.6966 23.9376 12.7712 23.9376C13.4053 23.9376 13.7878 23.7356 14.1932 23.1866C14.3092 23.0292 14.4368 22.8769 14.4763 22.8479C14.5804 22.7719 16.2132 22.7812 16.2607 22.859C16.333 22.9761 16.0121 23.6863 15.6954 24.1097C15.1291 24.8668 14.3077 25.3546 13.3324 25.513C12.849 25.5915 12.6901 25.591 12.2068 25.5086V25.5089ZM25.6991 25.5155C23.9325 25.2435 22.5906 23.728 22.596 22.0108C22.6004 20.3883 23.5415 19.0492 25.0469 18.5206C25.744 18.2759 26.7697 18.266 27.4584 18.4974C29.5686 19.2065 30.5534 21.5666 29.5697 23.5572C29.2793 24.1446 28.7532 24.7252 28.2372 25.0276C27.5349 25.4392 26.4979 25.6386 25.6991 25.5155V25.5155ZM27.2317 23.7053C28.2825 23.0099 28.4637 21.4632 27.6086 20.4893C27.2691 20.1026 26.8648 19.9338 26.2782 19.9338C25.1659 19.9338 24.4257 20.7339 24.4257 21.9365C24.4257 22.7974 24.8012 23.4464 25.4886 23.7735C25.7891 23.9165 25.9392 23.9417 26.3908 23.9245C26.842 23.909 26.9824 23.8703 27.2317 23.7055V23.7053ZM33.208 25.5154C31.7124 25.2853 30.5915 24.2757 30.2115 22.8167C29.907 21.6479 30.2877 20.2562 31.1471 19.3957C31.876 18.6659 32.6892 18.3412 33.7883 18.3412C34.6094 18.3412 35.169 18.4957 35.7921 18.8943C37.9664 20.2852 38.0289 23.468 35.9103 24.8975C35.1297 25.4242 34.1182 25.6555 33.2082 25.5154H33.208ZM34.5851 23.7912C35.2462 23.4712 35.6408 22.7779 35.6408 21.9365C35.6408 20.7393 34.9001 19.9338 33.7992 19.9338C33.2332 19.9338 32.942 20.0409 32.553 20.3923C31.5567 21.2924 31.7614 23.0969 32.9328 23.7408C33.3955 23.9951 34.1184 24.0171 34.5851 23.7914V23.7912ZM16.5488 25.354C16.5312 25.3034 16.5221 23.7335 16.5334 21.8649L16.5511 18.4675H17.4093H18.2676L18.3034 19.7549L18.3392 21.0424L19.3839 21.0623C20.1919 21.0778 20.4467 21.0602 20.5086 20.9856C20.5588 20.9253 20.5959 20.4378 20.6083 19.6784L20.6282 18.4677L21.4046 18.4478C21.9158 18.4324 22.2151 18.4567 22.2808 18.5104C22.4291 18.6334 22.4291 25.241 22.2808 25.3642C22.2149 25.4185 21.9158 25.44 21.4046 25.4267L20.6282 25.4068L20.5924 24.0478L20.5566 22.6889H19.448H18.3393L18.3035 24.0478L18.2678 25.4068L17.426 25.4267C16.7924 25.4422 16.5755 25.4246 16.5491 25.3551L16.5488 25.354ZM18.103 17.6307C17.9793 17.5069 17.9793 10.9165 18.103 10.793C18.2217 10.6743 19.4552 10.6772 19.6017 10.7974C19.662 10.8464 20.2506 11.7478 20.9094 12.8C21.5682 13.8524 22.136 14.7134 22.1711 14.7134C22.2064 14.7134 22.2433 13.8298 22.2539 12.7286L22.2716 10.7437L23.0122 10.7239C23.4968 10.7084 23.7872 10.7327 23.8526 10.7864C23.9887 10.8995 24.0024 17.4964 23.8681 17.6323C23.7697 17.7304 22.5434 17.7512 22.395 17.657C22.344 17.6248 21.7647 16.7508 21.1075 15.715C20.4503 14.6792 19.8715 13.8181 19.8212 13.8013C19.7485 13.777 19.7313 14.1588 19.7362 15.6727C19.7406 16.7187 19.7207 17.6068 19.6982 17.6462C19.6332 17.7514 18.2097 17.7386 18.103 17.6307V17.6307ZM24.3445 17.6286C24.3268 17.5789 24.3182 16.0092 24.3291 14.1407L24.3468 10.7432H26.2779H28.2091L28.229 11.5102L28.2489 12.2772L27.1915 12.2971L26.1341 12.3169V12.8176V13.3183L27.1354 13.3541L28.1368 13.3899L28.1567 14.1568L28.1765 14.9237L27.1549 14.9436L26.1333 14.9635V15.5357V16.1078L27.1907 16.1277L28.248 16.1476L28.2281 16.9146L28.2083 17.6815L26.2932 17.6992C24.7998 17.7147 24.3705 17.6984 24.3434 17.6276L24.3445 17.6286ZM30.3305 17.5917C30.1973 17.3366 28.5848 10.9291 28.6265 10.8204C28.6623 10.7272 28.8037 10.7077 29.4409 10.7086C29.8651 10.7091 30.2487 10.7333 30.2933 10.7623C30.3382 10.7912 30.557 11.6839 30.7799 12.746C31.2481 14.977 31.2441 14.9612 31.324 14.881C31.3573 14.8476 31.5841 13.9351 31.828 12.8533C32.0719 11.7714 32.3028 10.8461 32.3413 10.7969C32.387 10.7384 32.6141 10.7077 33.0015 10.7077C33.3877 10.7077 33.6169 10.7386 33.6641 10.7969C33.7037 10.846 33.9352 11.7714 34.1784 12.8533C34.4215 13.9351 34.6494 14.8497 34.6848 14.8858C34.7727 14.9753 34.7654 15.004 35.2186 12.8207C35.4387 11.7604 35.6535 10.8512 35.6958 10.8002C35.7502 10.7346 36.0014 10.7076 36.553 10.7076C37.1954 10.7076 37.3408 10.7275 37.3762 10.8199C37.424 10.9441 35.7141 17.4853 35.5967 17.6278C35.547 17.6881 35.2954 17.7173 34.8192 17.7173C34.2212 17.7173 34.1053 17.6996 34.05 17.5922C34.0142 17.5232 33.7849 16.6142 33.5406 15.572C33.0962 13.6765 33.0212 13.4213 32.9447 13.5452C32.9224 13.5816 32.7085 14.4627 32.4699 15.5034C32.2312 16.544 32.0045 17.4679 31.966 17.5564C31.8999 17.7087 31.8553 17.7173 31.1459 17.7173C30.5042 17.7173 30.3865 17.6996 30.3305 17.5922V17.5917Z" fill="#6E6E6E"/>
</svg>
