<svg width="44" height="44" viewBox="0 0 44 44" fill="none" xmlns="http://www.w3.org/2000/svg">
<path opacity="0.996" d="M43.9999 21.9336C44.0175 27.768 41.7168 33.3705 37.6038 37.5087C33.4909 41.6469 27.9026 43.9818 22.0682 43.9999C16.2337 44.018 10.631 41.7177 6.49254 37.6051C2.35403 33.4925 0.0186486 27.9043 0.00011121 22.0699C-0.018427 16.2355 2.28139 10.6326 6.39369 6.49378C10.506 2.35494 16.094 0.0191098 21.9284 0.000116707C27.7628 -0.0188742 33.3659 2.28053 37.505 6.3925C41.6442 10.5045 43.9804 16.0922 43.9999 21.9267" fill="white"/>
<path d="M32.962 16.8895C32.8659 19.0294 31.3704 21.9629 28.4827 25.6844C25.4915 29.5716 22.9672 31.5147 20.895 31.5147C19.6054 31.5147 18.5354 30.3304 17.643 27.9626L15.8875 21.4513C15.2294 19.0862 14.5256 17.9018 13.7714 17.9018C13.6075 17.9018 13.0337 18.2478 12.0498 18.9379L11.0164 17.6044C12.101 16.6488 13.1683 15.6969 14.2208 14.7414C15.666 13.4893 16.7515 12.833 17.4737 12.7653C19.1825 12.6007 20.2342 13.7721 20.6287 16.2781C21.0543 18.9809 21.3508 20.6614 21.5174 21.3186C22.0107 23.561 22.5526 24.6813 23.1429 24.6813C23.6024 24.6813 24.2925 23.9527 25.216 22.4983C26.135 21.044 26.6256 19.9383 26.6915 19.1777C26.8234 17.9229 26.3299 17.2914 25.2142 17.2914C24.6888 17.2914 24.1461 17.4021 23.5877 17.6492C24.6733 14.1089 26.7308 12.38 29.7769 12.4898C32.0403 12.5448 33.0975 14.0128 32.9739 16.8804L32.962 16.8895Z" fill="#6E6E6E"/>
</svg>
