<svg width="44" height="44" viewBox="0 0 44 44" fill="none" xmlns="http://www.w3.org/2000/svg">
<path opacity="0.996" d="M43.9999 21.9336C44.0175 27.768 41.7168 33.3705 37.6039 37.5087C33.4909 41.6469 27.9026 43.9818 22.0682 43.9999C16.2337 44.018 10.6311 41.7177 6.49254 37.6051C2.35403 33.4925 0.0186486 27.9043 0.000111209 22.0699C-0.018427 16.2355 2.2814 10.6326 6.3937 6.49376C10.506 2.35492 16.094 0.0191086 21.9284 0.000116715C27.7628 -0.0188748 33.3659 2.28051 37.505 6.39249C41.6442 10.5045 43.9804 16.0922 43.9999 21.9267" fill="white"/>
<path d="M33.8052 16.0772C33.5213 15.0224 32.6896 14.1908 31.6348 13.9068C29.7079 13.3794 22 13.3794 22 13.3794C22 13.3794 14.2921 13.3794 12.3651 13.8865C11.3306 14.1705 10.4787 15.0224 10.1947 16.0772C9.68759 18.0041 9.68759 22.0001 9.68759 22.0001C9.68759 22.0001 9.68759 26.0163 10.1947 27.923C10.4787 28.9778 11.3103 29.8094 12.3651 30.0934C14.3123 30.6208 22 30.6208 22 30.6208C22 30.6208 29.7079 30.6208 31.6348 30.1137C32.6896 29.8297 33.5213 28.9981 33.8052 27.9433C34.3123 26.0163 34.3123 22.0204 34.3123 22.0204C34.3123 22.0204 34.3326 18.0041 33.8052 16.0772V16.0772Z" fill="#6E6E6E"/>
<path d="M19.5456 18.3081V25.6915L25.9553 21.9998L19.5456 18.3081Z" fill="white"/>
</svg>
