<?xml version="1.0" encoding="UTF-8" standalone="no"?>
<!-- Created with Inkscape (http://www.inkscape.org/) -->

<svg
   xmlns:dc="http://purl.org/dc/elements/1.1/"
   xmlns:cc="http://creativecommons.org/ns#"
   xmlns:rdf="http://www.w3.org/1999/02/22-rdf-syntax-ns#"
   xmlns:svg="http://www.w3.org/2000/svg"
   xmlns="http://www.w3.org/2000/svg"
   xmlns:sodipodi="http://sodipodi.sourceforge.net/DTD/sodipodi-0.dtd"
   xmlns:inkscape="http://www.inkscape.org/namespaces/inkscape"
   width="524.51984mm"
   height="96.338524mm"
   viewBox="0 0 524.51984 96.338524"
   version="1.1"
   id="svg8"
   inkscape:version="0.92.4 (5da689c313, 2019-01-14)"
   sodipodi:docname="logo.svg">
  <defs
     id="defs2">
    <path
       d="M 22.735,23.171 C 23.018,23.494 22.788,24 22.359,24 h -5.907 c -0.285,0 -0.556,-0.121 -0.745,-0.333 L 6.293,13.141 v 10.36 c 0,0.276 -0.224,0.5 -0.5,0.5 H 0.5 c -0.276,0 -0.5,-0.224 -0.5,-0.5 v -23 c 0,-0.276 0.224,-0.5 0.5,-0.5 h 5.293 c 0.276,0 0.5,0.224 0.5,0.5 v 9.815 l 9.141,-9.99 c 0.19,-0.207 0.457,-0.325 0.738,-0.325 h 5.762 c 0.437,0 0.664,0.521 0.366,0.841 l -9.851,10.563 10.287,11.767 z"
       id="b"
       inkscape:connector-curvature="0" />
    <path
       d="m 45.991,24 c -0.199,0 -0.38,-0.118 -0.459,-0.301 L 43.508,19.03 h -10.67 l -2.024,4.669 C 30.735,23.882 30.555,24 30.355,24 h -5.212 c -0.366,0 -0.608,-0.381 -0.453,-0.712 l 10.782,-23 C 35.554,0.112 35.731,0 35.925,0 h 4.358 c 0.194,0 0.37,0.112 0.453,0.287 l 10.815,23 C 51.707,23.619 51.465,24 51.099,24 Z M 34.856,14.332 h 6.635 l -3.317,-7.694 -3.317,7.694 z"
       id="c"
       inkscape:connector-curvature="0" />
    <path
       d="m 55.525,24 c -0.276,0 -0.5,-0.224 -0.5,-0.5 v -23 c 0,-0.276 0.224,-0.5 0.5,-0.5 h 5.293 c 0.276,0 0.5,0.224 0.5,0.5 v 18.428 h 9.759 c 0.276,0 0.5,0.224 0.5,0.5 V 23.5 c 0,0.276 -0.224,0.5 -0.5,0.5 z"
       id="d"
       inkscape:connector-curvature="0" />
    <path
       d="m 75.279,0.5 c 0,-0.276 0.224,-0.5 0.5,-0.5 h 9.315 c 2.667,0 4.959,0.477 6.874,1.43 1.938,0.953 3.42,2.338 4.446,4.153 1.026,1.793 1.539,3.926 1.539,6.4 0,2.496 -0.513,4.652 -1.539,6.468 -1.003,1.793 -2.474,3.166 -4.412,4.119 C 90.087,23.523 87.784,24 85.094,24 h -9.315 c -0.276,0 -0.5,-0.224 -0.5,-0.5 z m 9.37,18.462 c 2.371,0 4.138,-0.579 5.301,-1.736 1.163,-1.157 1.744,-2.905 1.744,-5.242 C 91.694,9.646 91.113,7.91 89.95,6.775 88.787,5.618 87.02,5.039 84.649,5.039 h -3.078 v 13.923 z"
       id="e"
       inkscape:connector-curvature="0" />
    <path
       d="m 102.913,24 c -0.276,0 -0.5,-0.224 -0.5,-0.5 v -23 c 0,-0.276 0.224,-0.5 0.5,-0.5 h 5.293 c 0.276,0 0.5,0.224 0.5,0.5 v 23 c 0,0.276 -0.224,0.5 -0.5,0.5 z"
       id="f"
       inkscape:connector-curvature="0" />
  </defs>
  <sodipodi:namedview
     id="base"
     pagecolor="#ffffff"
     bordercolor="#666666"
     borderopacity="1.0"
     inkscape:pageopacity="0.0"
     inkscape:pageshadow="2"
     inkscape:zoom="0.35"
     inkscape:cx="1226.8132"
     inkscape:cy="214.71149"
     inkscape:document-units="mm"
     inkscape:current-layer="layer1"
     showgrid="false"
     fit-margin-top="0"
     fit-margin-left="0"
     fit-margin-right="0"
     fit-margin-bottom="0"
     inkscape:window-width="1920"
     inkscape:window-height="1001"
     inkscape:window-x="-9"
     inkscape:window-y="-9"
     inkscape:window-maximized="1" />
  <metadata
     id="metadata5">
    <rdf:RDF>
      <cc:Work
         rdf:about="">
        <dc:format>image/svg+xml</dc:format>
        <dc:type
           rdf:resource="http://purl.org/dc/dcmitype/StillImage" />
        <dc:title></dc:title>
      </cc:Work>
    </rdf:RDF>
  </metadata>
  <g
     inkscape:label="Layer 1"
     inkscape:groupmode="layer"
     id="layer1"
     transform="translate(625.0854,-109.30389)">
    <path
       style="fill:#000000;stroke-width:0.35277781"
       d="m -499.21837,205.08624 c -0.69393,-0.83614 2.18618,-24.11966 3.06284,-24.76068 0.82961,-0.60663 8.84018,-0.5858 11.45534,0.0298 1.0901,0.2566 2.4668,0.81175 3.05933,1.23367 3.03929,2.16416 2.76434,8.30277 -0.5111,11.41083 -1.47272,1.39748 -3.94427,2.36556 -7.04209,2.75832 -1.5059,0.19093 -2.83829,0.50942 -2.96086,0.70775 -0.12258,0.19833 -0.41686,2.02942 -0.65395,4.0691 -0.51255,4.40933 -0.57824,4.61342 -1.57064,4.87958 -1.56631,0.42008 -4.37596,0.22943 -4.83887,-0.32835 z m 11.03323,-14.33188 c 1.42483,-0.72938 2.37084,-4.23879 1.48395,-5.505 -0.44266,-0.63198 -0.89094,-0.78547 -2.29405,-0.78547 -0.95914,0 -1.75615,0.0397 -1.77114,0.0882 -0.18347,0.59369 -0.86323,6.66484 -0.75801,6.77005 0.20894,0.20895 2.62416,-0.20172 3.33925,-0.56778 z m 12.27973,14.0148 c -0.72105,-0.86882 2.12461,-24.13199 3.03321,-24.79638 0.82961,-0.60662 8.84018,-0.5858 11.45535,0.0298 2.63969,0.62136 4.00389,1.65314 4.74236,3.58679 1.19936,3.14048 0.0802,7.08395 -2.6814,9.44773 l -1.44944,1.24067 0.93233,1.40883 c 1.71707,2.59468 2.60221,7.73175 1.51888,8.81509 -0.57966,0.57966 -5.38122,0.5651 -5.8181,-0.0176 -0.18184,-0.24253 -0.5243,-1.62707 -0.76103,-3.07676 -0.53091,-3.2511 -1.82422,-5.65448 -3.04281,-5.65448 -1.00789,0 -1.0625,0.16356 -1.60095,4.79482 -0.22765,1.95805 -0.54856,3.77796 -0.71313,4.04424 -0.19102,0.30909 -1.17327,0.53353 -2.71656,0.62074 -1.92865,0.10898 -2.51465,0.0193 -2.89871,-0.44342 z m 11.00361,-14.36758 c 1.43018,-0.73212 2.32349,-4.56008 1.34054,-5.74446 -0.29567,-0.35626 -1.05112,-0.54601 -2.17384,-0.54601 -0.94638,0 -1.73296,0.0397 -1.74795,0.0882 -0.18347,0.59369 -0.86322,6.66484 -0.75801,6.77005 0.20895,0.20895 2.62416,-0.20172 3.33926,-0.56778 z m 17.4327,14.02745 c -1.57614,-0.58359 -2.87868,-1.71171 -3.70424,-3.20819 -0.83551,-1.51454 -0.80709,-8.90534 0.0483,-12.56032 1.08297,-4.62739 3.86794,-8.15095 7.22609,-9.14247 2.20232,-0.65026 6.86335,-0.83411 8.88022,-0.35026 2.29635,0.55088 4.36132,2.40491 4.9164,4.41416 0.4887,1.76896 0.50173,6.33754 0.0267,9.34861 -0.90809,5.75569 -2.87118,9.16508 -6.22359,10.80881 -1.82271,0.8937 -2.48656,1.01668 -5.93291,1.09909 -2.6903,0.0643 -4.29658,-0.0613 -5.23692,-0.40943 z m 7.78965,-5.01896 c 1.94624,-1.21415 3.01491,-4.93386 3.06013,-10.65126 0.0377,-4.76707 -0.21525,-5.16273 -3.1303,-4.89665 -1.43749,0.13122 -1.91986,0.36234 -2.69565,1.29161 -2.25443,2.70044 -3.41679,12.26732 -1.73646,14.292 0.78141,0.94154 2.96353,0.92423 4.50228,-0.0357 z m 14.93976,4.31635 c -0.42565,-0.51288 -0.29799,-2.1945 0.93311,-12.29155 1.3403,-10.99267 1.47616,-11.73782 2.25511,-12.36857 0.7514,-0.60844 1.32398,-0.6583 6.12547,-0.53337 4.42585,0.11516 5.56387,0.25914 6.92237,0.8758 3.20098,1.45302 4.45061,4.39268 4.07535,9.58699 -0.41866,5.79495 -2.01054,9.70029 -5.04151,12.36825 -2.18798,1.92593 -4.2419,2.48913 -10.01125,2.74514 -4.20037,0.18639 -4.82402,0.141 -5.25865,-0.38269 z m 10.38226,-5.61533 c 1.36221,-1.36221 2.52771,-4.76712 2.9283,-8.55475 0.5035,-4.76059 -0.38345,-6.50356 -3.30948,-6.50356 -1.80379,0 -1.56298,-0.7748 -2.63145,8.46667 -0.39258,3.39548 -0.79237,6.5308 -0.88842,6.96736 -0.15906,0.72294 -0.045,0.79375 1.27847,0.79375 1.17489,0 1.67703,-0.22392 2.62258,-1.16947 z m 18.78332,5.2536 c -3.0424,-1.08584 -4.15032,-2.62197 -4.14603,-5.74849 0.004,-2.63628 2.04161,-18.51234 2.42571,-18.89645 0.18902,-0.18902 1.43123,-0.42149 2.76047,-0.51659 3.70443,-0.26506 3.61952,-0.59996 2.37797,9.37883 -1.20164,9.65802 -1.2279,10.55977 -0.32677,11.2187 0.84702,0.61935 5.46997,0.64824 6.22366,0.0389 0.40795,-0.32982 0.83626,-2.84193 1.69918,-9.96598 0.63456,-5.23875 1.29817,-9.80281 1.47469,-10.14236 0.26136,-0.50277 0.80172,-0.61736 2.91116,-0.61736 1.64517,0 2.72145,0.16089 2.9499,0.44097 0.24862,0.30482 -0.0831,4.06037 -1.07416,12.16296 l -1.43384,11.72198 -1.0875,0.34844 c -3.45625,1.10738 -12.29885,1.45286 -14.75444,0.57645 z m 26.71971,-0.51428 c -2.78069,-1.27689 -3.70416,-3.21173 -3.70416,-7.76082 0,-3.84743 0.7435,-7.93432 1.90496,-10.47131 1.17156,-2.55901 3.70236,-5.19144 5.89988,-6.13679 3.27123,-1.40725 8.9712,-1.40029 10.48797,0.0128 0.98764,0.92012 0.97174,2.51121 -0.0366,3.65813 -0.78962,0.89817 -0.80295,0.90003 -2.55764,0.35772 -3.11524,-0.96281 -5.76809,0.16479 -7.26778,3.08918 -1.68871,3.29295 -2.34087,10.37683 -1.09677,11.91323 0.94144,1.16264 3.26083,1.30664 6.02447,0.37404 1.23533,-0.41686 2.28538,-0.71032 2.33347,-0.65212 0.46335,0.5608 0.88855,1.83704 0.88855,2.66696 0,2.27142 -3.08312,3.61722 -8.25815,3.60472 -2.35187,-0.006 -3.58343,-0.18055 -4.61824,-0.65573 z m 24.00601,-0.37594 c -0.57015,-0.63001 -0.53799,-1.19786 0.5902,-10.41915 0.6803,-5.56043 1.05654,-9.83729 0.87525,-9.94934 -0.17489,-0.10809 -1.54563,-0.0894 -3.04609,0.0415 -3.22712,0.2815 -3.65303,-0.002 -3.48512,-2.32353 0.0872,-1.20565 0.29082,-1.60829 0.9917,-1.96115 1.2279,-0.6182 19.06971,-0.64638 19.685,-0.0311 0.65885,0.65885 0.51946,2.9081 -0.22181,3.57893 -0.50063,0.45306 -1.36287,0.58384 -3.84954,0.58384 h -3.20441 l -0.20966,1.32291 c -0.11531,0.72761 -0.67887,5.20061 -1.25235,9.94 -0.64642,5.34207 -1.21538,8.77793 -1.49705,9.0403 -0.24989,0.23276 -1.42607,0.51769 -2.61373,0.63317 -1.83497,0.17842 -2.24998,0.10985 -2.76239,-0.45636 z m 18.52137,-0.52681 c -0.40924,-0.4931 -0.26927,-2.31399 0.94064,-12.23726 1.03303,-8.47254 1.56788,-11.80443 1.95743,-12.19398 0.31677,-0.31677 1.45753,-0.60998 2.78901,-0.71686 3.5794,-0.28732 3.48474,-0.98275 1.75338,12.88274 -0.81578,6.53311 -1.63987,12.03502 -1.83131,12.22646 -0.19145,0.19144 -1.42365,0.40885 -2.73823,0.48313 -1.90125,0.10743 -2.4885,0.0166 -2.87092,-0.44423 z m 17.49959,0.0119 c -1.57614,-0.58359 -2.87868,-1.7117 -3.70423,-3.20819 -0.83552,-1.51454 -0.8071,-8.90534 0.0483,-12.56032 1.08296,-4.62738 3.86794,-8.15095 7.22608,-9.14247 2.20233,-0.65026 6.86336,-0.8341 8.88023,-0.35026 2.29634,0.55088 4.36132,2.40491 4.9164,4.41416 0.48869,1.76896 0.50172,6.33754 0.0267,9.34861 -0.9081,5.75569 -2.87119,9.16509 -6.2236,10.80882 -1.82271,0.89369 -2.48656,1.01667 -5.93291,1.09908 -2.6903,0.0643 -4.29658,-0.0613 -5.23691,-0.40943 z m 7.78965,-5.01896 c 1.94624,-1.21415 3.01492,-4.93386 3.06013,-10.65126 0.0377,-4.76707 -0.21524,-5.16273 -3.1303,-4.89664 -1.43749,0.13121 -1.91986,0.36233 -2.69565,1.2916 -2.25443,2.70044 -3.41679,12.26733 -1.73646,14.292 0.78141,0.94154 2.96353,0.92424 4.50228,-0.0357 z m 14.8972,4.26506 c -0.69394,-0.83614 2.18618,-24.11966 3.06284,-24.76068 0.35097,-0.25664 1.60005,-0.44419 2.92618,-0.43937 l 2.31383,0.008 2.88841,5.37144 c 1.58863,2.9543 3.20011,6.16521 3.58108,7.13534 0.85213,2.16992 0.84398,2.19763 1.69182,-5.75532 0.33743,-3.16543 0.78232,-5.97482 0.98862,-6.24309 0.537,-0.69834 5.00292,-0.81149 5.66896,-0.14363 0.43025,0.43139 0.29351,2.14408 -0.99158,12.42275 -1.11792,8.94152 -1.62162,12.0052 -2.01451,12.25363 -0.28815,0.18219 -1.58161,0.33368 -2.87436,0.33665 l -2.35042,0.005 -2.2122,-3.96875 c -1.21669,-2.18281 -2.87785,-5.3923 -3.69143,-7.13219 l -1.47927,-3.16344 -0.24232,2.2815 c -0.4657,4.38444 -1.28542,10.75292 -1.45799,11.32743 -0.21545,0.71723 -1.20506,0.99718 -3.54703,1.00341 -1.20466,0.003 -1.95978,-0.177 -2.26063,-0.5395 z m 28.00429,-0.48925 c -0.80585,-0.36591 -1.56809,-0.98949 -1.69386,-1.38573 -0.2589,-0.81571 0.44693,-2.38375 1.5034,-3.33982 0.67892,-0.6144 0.76055,-0.61548 1.88821,-0.025 1.45168,0.76023 5.63058,0.87436 7.23374,0.19757 0.65454,-0.27632 1.29625,-0.90576 1.55141,-1.52177 0.57563,-1.38965 -0.0243,-2.20076 -3.93008,-5.31373 -1.634,-1.30231 -3.64561,-3.10361 -4.47023,-4.00288 -1.34891,-1.47101 -1.4993,-1.81323 -1.4993,-3.41135 0,-2.30544 0.90981,-3.76766 3.07876,-4.94816 0.92696,-0.50451 2.7801,-1.10793 4.11815,-1.34094 2.92746,-0.50979 8.4884,-0.2787 9.93094,0.41269 0.88727,0.42525 1.0402,0.69973 1.0402,1.86683 0,1.07082 -0.20408,1.52067 -0.93874,2.06917 -0.80359,0.59996 -1.10328,0.64354 -2.08114,0.30266 -1.6075,-0.56038 -5.76619,-0.49534 -7.222,0.11294 -2.14933,0.89804 -1.6692,1.69852 3.25311,5.4237 4.14143,3.1342 5.36427,4.57769 5.64384,6.66209 0.47085,3.51033 -2.1572,7.25513 -5.86285,8.35419 -2.83256,0.84011 -9.59061,0.77425 -11.54356,-0.11249 z m -284.46117,-2.50728 c 0,-0.99398 0.18741,-1.47351 0.6786,-1.73639 0.384,-0.20551 7.08446,-0.59143 15.43403,-0.88894 8.11549,-0.28917 15.90636,-0.57098 17.31307,-0.62623 l 2.55763,-0.10047 v 1.12819 c 0,2.36392 0.35088,2.31343 -20.46111,2.9442 -6.49993,0.19699 -12.65149,0.42448 -13.67014,0.50551 l -1.85208,0.14734 z m 307.97501,-8.81945 c 0,-0.99397 0.1874,-1.4735 0.67861,-1.73638 0.38399,-0.20551 7.08444,-0.59144 15.43402,-0.88895 8.11548,-0.28917 15.90637,-0.57097 17.31307,-0.62623 l 2.55764,-0.10046 v 1.12819 c 0,2.36392 0.35087,2.31343 -20.46111,2.94419 -6.49994,0.197 -12.6515,0.42448 -13.67014,0.50551 l -1.85209,0.14734 z m -390.36282,-30.41399 c -0.0926,-0.24253 -0.12734,-11.47409 -0.0771,-24.95902 l 0.0913,-24.51806 5.44136,-0.0977 c 4.11675,-0.0739 5.51094,0.012 5.72723,0.35278 0.15724,0.24777 0.28832,11.33281 0.29129,24.63341 0.004,18.34467 -0.0968,24.28512 -0.41793,24.60625 -0.61069,0.61069 -10.82236,0.5944 -11.05614,-0.0176 z m 14.1188,0.0221 c -0.1049,-0.27335 -0.14634,-2.71186 -0.0921,-5.41891 l 0.0986,-4.92189 9.71184,-0.17638 c 9.51185,-0.17276 9.74728,-0.19464 11.43291,-1.06262 1.20638,-0.6212 1.94176,-1.30695 2.45899,-2.29306 0.77532,-1.47813 0.77204,-1.39038 1.22258,-32.72504 l 0.0445,-3.096 5.37986,0.0974 5.37986,0.0974 -0.003,17.63889 c -0.003,18.94932 -0.14375,20.86554 -1.80002,24.51806 -1.58292,3.49079 -4.35767,5.66007 -8.86272,6.92882 -2.89014,0.81394 -24.67934,1.17464 -24.97147,0.41337 z m 39.50343,-0.0221 c -0.0926,-0.24253 -0.12735,-11.47409 -0.0771,-24.95902 l 0.0913,-24.51806 h 5.64444 5.64445 l 0.0906,24.47898 c 0.0659,17.78939 -0.0182,24.61017 -0.30778,24.95903 -0.55083,0.66372 -10.83349,0.69996 -11.08592,0.0391 z m 38.92972,-16.39512 c -0.16847,-23.57903 0.86045,-22.04033 -14.92664,-22.32224 l -9.87778,-0.17639 v -5.29166 -5.29167 l 10.05417,-0.10289 c 11.98309,-0.12262 14.87976,0.18158 18.37382,1.92959 2.69261,1.34706 4.43151,3.17327 5.58593,5.86643 1.47832,3.44879 1.61664,5.52214 1.61664,24.23326 v 17.81528 l -5.35286,0.0972 -5.35286,0.0972 z m 15.30642,16.41276 c -0.32114,-0.32113 -0.42203,-6.26158 -0.41794,-24.60625 0.003,-13.3006 0.13406,-24.38564 0.29129,-24.63341 0.21629,-0.34083 1.61049,-0.4267 5.72724,-0.35278 l 5.44135,0.0977 0.0935,10.31418 0.0935,10.31419 12.25371,0.0928 12.25371,0.0928 v 5.64444 5.64445 l -12.25903,0.0928 -12.25903,0.0928 v 8.39154 c 0,6.05638 -0.1178,8.50934 -0.42333,8.81487 -0.28923,0.28923 -1.99908,0.42334 -5.3975,0.42334 -3.39843,0 -5.10828,-0.13411 -5.3975,-0.42334 z m 38.91257,-0.008 c -0.0882,-0.24773 -0.20391,-7.91168 -0.25715,-17.03098 -0.1049,-17.96682 -0.1131,-18.04501 -2.08641,-19.91587 -1.56086,-1.47981 -2.27841,-1.58174 -12.47429,-1.77202 l -9.87778,-0.18434 -0.0974,-5.37986 -0.0974,-5.37986 10.8571,0.006 c 8.03371,0.005 11.47421,0.13691 13.23013,0.50902 6.12724,1.2985 9.0994,4.10108 10.77663,10.1618 0.54073,1.9539 0.60868,4.26711 0.60868,20.72028 v 18.52084 l -5.21091,0.0977 c -3.97907,0.0746 -5.24881,-0.009 -5.37124,-0.35277 z m 14.67986,-0.0486 c -0.28953,-0.34886 -0.37364,-7.16964 -0.30778,-24.95903 l 0.0906,-24.47896 21.26383,-0.091 21.26384,-0.091 -0.0972,5.55901 -0.0972,5.55901 -15.43403,0.0919 -15.43403,0.0919 v 4.75293 4.75293 l 9.26042,0.0941 9.26042,0.0941 v 5.64444 5.64445 l -9.26042,0.094 -9.26042,0.0941 v 8.59946 c 0,7.51614 -0.0703,8.62643 -0.55802,8.81358 -0.30691,0.11778 -2.74809,0.21414 -5.42485,0.21414 -3.67438,0 -4.96446,-0.11762 -5.26525,-0.48005 z m 46.25895,-24.47896 0.0906,-24.95903 h 21.16667 21.16667 v 5.46805 5.46806 l -15.43403,0.0919 -15.43403,0.0919 v 4.75879 4.75879 h 9.17223 9.17222 v 5.82083 5.82084 h -9.17222 -9.17223 v 8.26142 c 0,4.54379 -0.0963,8.51254 -0.21413,8.81945 -0.18284,0.47646 -1.0339,0.55802 -5.8232,0.55802 h -5.60907 z m 46.29381,24.52728 c -0.0946,-0.24761 -0.13089,-11.48332 -0.0807,-24.96825 l 0.0913,-24.51806 5.55861,-0.0972 5.55862,-0.0972 -0.0906,24.968 -0.0906,24.968 -5.3874,0.0974 c -4.11586,0.0744 -5.42798,-0.009 -5.55936,-0.35278 z m 15.59475,0.19965 c -0.13105,-0.13105 -0.23827,-11.40369 -0.23827,-25.05031 v -24.81204 h 5.64444 5.64445 v 19.2221 19.22209 l 13.14097,0.0925 13.14097,0.0925 v 5.64444 5.64445 l -18.54714,0.0913 c -10.20093,0.0502 -18.65437,-0.016 -18.78542,-0.14699 z m 40.84615,-0.20888 c -0.0926,-0.24253 -0.12735,-11.47409 -0.0771,-24.95902 l 0.0913,-24.51806 5.24388,-0.0979 c 3.56666,-0.0666 5.4002,0.0319 5.73264,0.30778 0.67152,0.55731 0.73532,48.61491 0.0654,49.2848 -0.61069,0.61069 -10.82236,0.5944 -11.05614,-0.0176 z m 14.81667,0 c -0.0926,-0.24253 -0.12735,-11.47409 -0.0771,-24.95902 l 0.0913,-24.51806 h 5.64444 5.64445 l 0.0935,10.31418 0.0935,10.31419 12.25371,0.0928 12.2537,0.0928 v 5.64444 5.64445 l -12.25902,0.0928 -12.25903,0.0928 v 8.39154 c 0,6.05638 -0.1178,8.50934 -0.42334,8.81487 -0.61069,0.61069 -10.82235,0.5944 -11.05613,-0.0176 z m 38.99614,-15.13135 c 0,-17.42362 -0.17283,-19.42692 -1.8396,-21.32528 -1.75962,-2.00409 -3.31939,-2.26073 -13.73992,-2.26073 h -9.10149 l -0.19669,-0.79375 c -0.10818,-0.43656 -0.15089,-2.8575 -0.0949,-5.37986 l 0.10177,-4.58611 10.58334,-0.0938 c 8.01638,-0.0711 11.23128,0.0283 13.25484,0.40978 6.35833,1.19861 9.61369,4.20341 11.16041,10.30134 0.54882,2.16374 0.61853,4.48229 0.62484,20.77993 l 0.007,18.34445 -5.37986,0.0974 -5.37986,0.0974 v -15.5907 z m 31.8293,15.15775 c -0.33023,-0.33023 -0.43208,-4.90632 -0.43208,-19.41154 v -18.97944 h -8.64306 c -5.51617,0 -8.64884,-0.12763 -8.6591,-0.35278 -0.009,-0.19403 -0.0159,-2.57528 -0.0159,-5.29167 0,-2.71638 0.007,-5.09878 0.0159,-5.2942 0.0106,-0.23576 7.82037,-0.32479 23.21119,-0.26458 l 23.19514,0.0907 v 5.46805 5.46806 l -8.72825,0.0943 -8.72822,0.0944 -0.0912,19.30843 -0.0912,19.30843 -5.30056,0.097 c -3.82408,0.07 -5.42089,-0.0234 -5.73264,-0.33514 z m 32.96702,0.18218 c -0.13088,-0.13088 -0.23799,-11.40465 -0.23799,-25.05281 v -24.81484 l 20.90209,0.091 20.90208,0.091 v 5.46805 5.46806 l -15.16944,0.17639 -15.16945,0.17639 -0.0993,4.13906 -0.0993,4.13905 8.91878,0.0943 8.91879,0.0943 v 5.64444 5.64444 l -8.90764,0.0943 -8.90764,0.0943 v 3.52172 3.52172 l 14.90486,0.005 c 8.19768,0.003 15.10757,0.13405 15.35536,0.29129 0.34082,0.21629 0.42669,1.61048 0.35278,5.72723 l -0.0977,5.44136 -20.6641,0.091 c -11.36527,0.05 -20.7712,-0.0161 -20.90208,-0.147 z m 45.70896,-24.71766 0.0905,-24.968 h 5.46806 5.46805 v 24.87083 24.87084 l -5.55861,0.0972 -5.55861,0.0972 z m 14.18074,24.49359 c -0.0963,-0.25106 -0.13105,-2.83075 -0.0771,-5.73264 l 0.098,-5.27617 12.27709,-0.0928 12.27713,-0.0928 -0.10629,-11.3725 c -0.10569,-11.31076 -0.11092,-11.38063 -0.96496,-12.87176 -0.59005,-1.03022 -1.36263,-1.74762 -2.46944,-2.29306 -1.52033,-0.74921 -2.1554,-0.80368 -11.31214,-0.97017 l -9.70139,-0.17639 v -5.29166 -5.29167 h 10.93611 c 12.00602,0 14.07735,0.23146 17.49069,1.95451 3.65481,1.84494 5.83897,5.21899 6.66214,10.2916 0.21019,1.29527 0.361,9.59154 0.36255,19.94486 l 0.004,17.72709 h -17.64997 c -14.11414,0 -17.68503,-0.0915 -17.82512,-0.45647 z"
       id="path867"
       inkscape:connector-curvature="0" />
  </g>
</svg>
