<svg width="8" height="7" viewBox="0 0 8 7" fill="none" xmlns="http://www.w3.org/2000/svg">
<path d="M0.410235 1.08238C0.240647 1.04267 0.0961414 0.919549 0.0364673 0.763918C-0.0113834 0.639127 -0.0111501 0.45113 0.0369972 0.3244C0.0845518 0.199264 0.204268 0.0808003 0.330725 0.0337423L0.421403 0H3.90196H7.38253L7.4732 0.0337423C7.54228 0.0594471 7.58401 0.087399 7.64836 0.151079C7.76334 0.264845 7.80105 0.362196 7.80105 0.545267C7.80105 0.728424 7.76332 0.825759 7.64836 0.939292C7.58986 0.997072 7.53816 1.03314 7.48019 1.05663L7.39647 1.09054L3.92988 1.09267C1.91688 1.09391 0.441017 1.0896 0.410222 1.08238H0.410235Z" fill="#383838"/>
<path d="M0.409504 3.84325C0.239915 3.80353 0.095409 3.68042 0.0357349 3.5248C-0.0121158 3.39999 -0.0118825 3.21201 0.0362647 3.08527C0.0838194 2.96012 0.203536 2.84167 0.329993 2.7946L0.420671 2.76086H3.90123H7.3818L7.47247 2.7946C7.59481 2.84013 7.71909 2.96039 7.76573 3.07836C7.81365 3.19952 7.81384 3.40163 7.76621 3.52699C7.72099 3.646 7.59981 3.76874 7.47946 3.8175L7.39574 3.8514L3.92914 3.85354C1.91614 3.85478 0.440278 3.85047 0.409484 3.84325H0.409504Z" fill="#383838"/>
<path d="M0.409162 6.60405C0.239574 6.56434 0.0950674 6.44123 0.0353933 6.2856C-0.0117042 6.16278 -0.0112445 5.95968 0.0363995 5.83917C0.0830416 5.72119 0.207326 5.60094 0.329665 5.55543L0.42034 5.52167H3.90091H7.38148L7.47215 5.55543C7.59449 5.60094 7.71877 5.72119 7.76542 5.83917C7.81331 5.96032 7.81352 6.16246 7.76594 6.28782C7.72073 6.4068 7.59957 6.52954 7.47919 6.57831L7.3955 6.6122L3.92888 6.61434C1.91589 6.61559 0.440031 6.61127 0.409236 6.60405H0.409162Z" fill="#383838"/>
</svg>
