<svg width="105" height="118" viewBox="0 0 105 118" fill="none" xmlns="http://www.w3.org/2000/svg">
<path d="M13.775 97.0042C7.42054 96.1203 3.67485 93.3959 1.9074 88.3724C1.16562 86.264 1.10962 85.4394 0.987201 74.8233L0.856842 63.5192L6.28289 63.6116L11.7089 63.7041L11.886 73.0751C12.0936 84.0615 12.2084 84.4986 15.269 85.96L17.0213 86.7968L34.0206 86.9641L51.02 87.1314V92.1516V97.1716L33.3124 97.2151C23.5731 97.239 14.7813 97.1441 13.775 97.0042ZM54.0304 73.5856V49.8152L59.2541 49.8199C62.1271 49.8228 64.6781 49.9452 64.923 50.0921C65.2749 50.3032 65.349 55.2618 65.2771 73.7652L65.1861 97.1713L59.6082 97.2635L54.0304 97.3557V73.5856ZM68.2757 92.2352L68.3736 87.1314L78.2898 86.9642C87.989 86.8005 88.2391 86.7789 89.7113 85.9821C90.7455 85.4224 91.4657 84.6895 92.0133 83.6395C92.7978 82.135 92.8129 81.8626 92.9872 66.0469L93.1643 49.9825H98.4766H103.789L103.881 66.3816C103.984 84.6314 103.786 87.0045 101.867 90.5964C100.682 92.815 98.5428 94.7843 96.2983 95.7225C93.0189 97.0934 90.5194 97.3271 79.0775 97.3333L68.178 97.3389L68.2757 92.2352ZM1.14336 60.6364C1.0135 60.5137 0.907239 58.1031 0.907239 55.2795V50.1455L25.9636 50.2315L51.02 50.3173L51.122 54.8355C51.1781 57.3205 51.1352 59.6924 51.0267 60.1066L50.8294 60.8597H26.1044C12.5057 60.8597 1.27321 60.7592 1.14336 60.6364ZM0.913397 30.1619C0.920425 11.4188 1.03242 10.0412 2.82776 6.69317C4.47766 3.61631 6.71872 1.98397 11.0113 0.732443C12.8839 0.186483 14.4614 0.11602 24.8126 0.11602H36.4996V5.13614V10.1562L26.5834 10.332C16.6058 10.5088 16.0607 10.5712 14.2712 11.7431C12.0429 13.2024 12.0805 12.9009 11.886 30.9062L11.7089 47.3052L6.30807 47.3976L0.907239 47.49L0.913397 30.1619ZM39.9438 47.0793C39.6098 46.7637 39.5112 41.389 39.5155 23.7274C39.5185 11.1093 39.65 0.593039 39.8079 0.357983C40.0249 0.034642 41.4246 -0.0468102 45.5574 0.0233167L51.02 0.116005V23.7106V47.3052L45.6988 47.3971C41.8598 47.4635 40.2567 47.375 39.9438 47.0793V47.0793ZM54.0304 42.1558C54.0304 37.6123 54.1123 36.8049 54.5905 36.6314C54.8986 36.5197 65.9553 36.4283 79.1608 36.4283C99.1889 36.4283 103.239 36.5053 103.578 36.892C103.855 37.2073 103.954 38.9468 103.887 42.3305L103.789 47.3052L78.9095 47.3912L54.0303 47.4771L54.0304 42.1558ZM93.5283 33.6762C93.4446 33.4412 93.3108 29.3331 93.231 24.5473C93.1418 19.199 92.9255 15.3675 92.6698 14.6045C92.1267 12.9844 90.5779 11.5502 88.867 11.083C88.0069 10.8482 81.2732 10.6212 70.755 10.4724L54.0124 10.2356L54.1099 5.17583L54.2073 0.11602H71.915C90.8198 0.11602 92.8636 0.254131 96.3941 1.77044C100.145 3.3813 102.344 6.1076 103.496 10.5716C103.97 12.4108 104.085 14.8044 104.111 23.376L104.143 33.9182L98.9118 34.0109C94.9136 34.0817 93.6447 34.0024 93.5283 33.6762V33.6762Z" fill="#FEFEFE"/>
<path d="M0.0200459 117.91C0.00150899 117.864 -0.00544787 115.739 0.00461129 113.188L0.0228866 108.55L1.11215 108.532C1.93625 108.518 2.21535 108.534 2.25864 108.598C2.29012 108.645 2.31636 110.742 2.31695 113.258C2.31776 116.728 2.29758 117.852 2.23329 117.913C2.11104 118.028 0.0668444 118.025 0.0200459 117.91ZM2.84638 117.914C2.82538 117.862 2.81709 117.401 2.82794 116.889L2.84768 115.958L4.79182 115.924C6.69592 115.892 6.74305 115.887 7.08048 115.723C7.32198 115.606 7.46918 115.476 7.57273 115.289C7.72794 115.01 7.72728 115.026 7.81747 109.099L7.82637 108.513L8.90333 108.532L9.98028 108.55L9.97968 111.887C9.97908 115.471 9.95091 115.834 9.61935 116.525C9.30248 117.185 8.74702 117.596 7.84518 117.836C7.26664 117.99 2.90486 118.058 2.84638 117.914ZM10.7543 117.91C10.7357 117.864 10.7288 115.739 10.7388 113.188L10.7571 108.55H11.887H13.017L13.0351 113.181C13.0483 116.546 13.0314 117.836 12.9735 117.902C12.8632 118.028 10.8048 118.035 10.7543 117.91V117.91ZM18.5473 114.808C18.5135 110.348 18.7195 110.639 15.5593 110.585L13.5819 110.552V109.551V108.55L15.5946 108.531C17.9933 108.507 18.5733 108.565 19.2727 108.896C19.8117 109.15 20.1597 109.496 20.3908 110.005C20.6868 110.658 20.7145 111.05 20.7145 114.59V117.96L19.6429 117.978L18.5714 117.996L18.5473 114.808ZM21.6114 117.913C21.5471 117.852 21.5268 116.728 21.5278 113.258C21.5284 110.742 21.5546 108.645 21.586 108.598C21.6293 108.534 21.9084 108.518 22.7325 108.532L23.8218 108.55L23.8405 110.501L23.8592 112.452L26.3121 112.47L28.7652 112.487V113.555V114.623L26.3111 114.64L23.8571 114.658V116.245C23.8571 117.391 23.8335 117.855 23.7724 117.913C23.7144 117.968 23.3721 117.993 22.6919 117.993C22.0115 117.993 21.6693 117.968 21.6114 117.913V117.913ZM29.4009 117.911C29.3833 117.865 29.3602 116.415 29.3495 114.69C29.3285 111.291 29.3269 111.276 28.9318 110.922C28.6194 110.642 28.4757 110.623 26.4347 110.587L24.4573 110.552L24.4379 109.534L24.4184 108.517L26.5917 108.518C28.2 108.519 28.8887 108.544 29.2402 108.614C30.4668 108.86 31.0617 109.39 31.3975 110.536C31.5057 110.906 31.5194 111.344 31.5194 114.456V117.96L30.4762 117.978C29.6796 117.992 29.4254 117.976 29.4009 117.911ZM32.3397 117.902C32.2816 117.836 32.2649 116.546 32.278 113.181L32.2962 108.55L36.5528 108.533L40.8095 108.516L40.79 109.567L40.7705 110.619L37.6809 110.636L34.5913 110.654V111.553V112.452L36.445 112.47L38.2988 112.487V113.555V114.623L36.445 114.641L34.5913 114.659V116.285C34.5913 117.707 34.5773 117.917 34.4796 117.953C34.4181 117.975 33.9294 117.993 33.3937 117.993C32.6581 117.993 32.3998 117.971 32.3397 117.902V117.902ZM41.5998 113.272L41.618 108.55H45.8552H50.0923V109.584V110.619L47.0027 110.636L43.9131 110.654V111.554V112.454H45.7493H47.5854V113.555V114.656H45.7493H43.9131V116.219C43.9131 117.079 43.8939 117.829 43.8703 117.887C43.8336 117.978 43.6633 117.993 42.7045 117.993H41.5818L41.5998 113.272ZM50.8671 117.911C50.8481 117.865 50.8409 115.739 50.8509 113.188L50.8692 108.55L51.9819 108.532L53.0946 108.513L53.0765 113.236L53.0584 117.96L51.98 117.978C51.156 117.992 50.8934 117.976 50.8671 117.911ZM53.9889 117.949C53.9626 117.924 53.9411 115.792 53.9411 113.21V108.517H55.0711H56.201V112.153V115.789L58.8316 115.807L61.4621 115.824V116.892V117.96L57.7493 117.977C55.7073 117.986 54.0151 117.974 53.9889 117.949ZM62.1656 117.91C62.147 117.864 62.1401 115.739 62.1501 113.188L62.1684 108.55L63.218 108.532C63.932 108.519 64.2992 108.538 64.3656 108.59C64.5001 108.695 64.5129 117.786 64.3788 117.913C64.2565 118.028 62.2123 118.025 62.1656 117.91V117.91ZM65.1316 117.91C65.113 117.864 65.1061 115.739 65.1161 113.188L65.1344 108.55H66.2643H67.3943L67.4129 110.501L67.4316 112.452L69.8847 112.47L72.3376 112.487V113.555V114.623L69.8835 114.641L67.4295 114.658V116.245C67.4295 117.391 67.4059 117.855 67.3448 117.913C67.2225 118.029 65.1784 118.025 65.1316 117.91ZM72.9379 115.047C72.9379 111.751 72.9033 111.372 72.5696 111.013C72.2174 110.634 71.9051 110.585 69.8191 110.585H67.9972L67.9578 110.435C67.9362 110.353 67.9276 109.895 67.9388 109.418L67.9592 108.55L70.0778 108.532C71.6825 108.519 72.326 108.538 72.7312 108.61C74.004 108.837 74.6557 109.405 74.9653 110.559C75.0751 110.968 75.0891 111.406 75.0904 114.489L75.0918 117.96L74.0148 117.978L72.9378 117.997L72.9379 115.047ZM79.3096 117.915C79.2434 117.852 79.223 116.986 79.223 114.243V110.652H77.4928C76.3886 110.652 75.7615 110.628 75.7595 110.585C75.7577 110.549 75.7563 110.098 75.7563 109.584C75.7563 109.071 75.7577 108.62 75.7595 108.583C75.7616 108.538 77.325 108.521 80.4059 108.533L85.0492 108.55V109.584V110.619L83.302 110.637L81.5547 110.655L81.5364 114.307L81.5182 117.96L80.4571 117.978C79.6916 117.991 79.3719 117.974 79.3096 117.915V117.915ZM85.9089 117.949C85.8827 117.924 85.8613 115.792 85.8613 113.21V108.516L90.0455 108.533L94.2298 108.55V109.584V110.619L91.1932 110.652L88.1565 110.686L88.1366 111.469L88.1167 112.252L89.9021 112.269L91.6875 112.287V113.355V114.423L89.9043 114.441L88.1212 114.458V115.125V115.791L91.1048 115.792C92.7459 115.792 94.1292 115.817 94.1788 115.847C94.2469 115.888 94.2642 116.152 94.2493 116.93L94.2298 117.96L90.0932 117.977C87.818 117.986 85.9351 117.974 85.9089 117.949ZM95.0591 113.273L95.0772 108.55H96.1718H97.2664V113.255V117.96L96.1537 117.978L95.0409 117.996L95.0591 113.273ZM97.8978 117.907C97.8785 117.859 97.8716 117.371 97.8823 116.822L97.902 115.824L100.36 115.807L102.818 115.789L102.796 113.638C102.775 111.498 102.773 111.485 102.603 111.203C102.485 111.008 102.33 110.872 102.109 110.769C101.805 110.627 101.677 110.617 99.8441 110.585L97.902 110.552V109.551V108.55H100.091C102.494 108.55 102.909 108.594 103.593 108.92C104.324 109.269 104.761 109.907 104.926 110.867C104.968 111.112 104.998 112.681 104.999 114.64L105 117.993H101.466C98.641 117.993 97.9261 117.976 97.8981 117.907L97.8978 117.907Z" fill="#FEFEFE"/>
</svg>
